<?xml version="1.0" encoding="UTF-8"?>
<svg xmlns="http://www.w3.org/2000/svg" viewBox="0 0 1600 926" width="1600" height="926" role="img" aria-labelledby="title desc">
<title id="title">Dense ANSI overlapping stack-family share</title>
<desc id="desc">Ranked comparative CPU sample shares for overlapping call-stack families. Families must not be added.</desc>
<style>
text { font-family: -apple-system, BlinkMacSystemFont, 'Segoe UI', Arial, sans-serif; fill: #202428; }
.mono { font-family: ui-monospace, 'SFMono-Regular', Menlo, Consolas, monospace; }
.title { font-size: 29px; font-weight: 700; }
.subtitle { font-size: 15px; fill: #59636E; }
.label { font-size: 14px; }
.small { font-size: 12px; fill: #59636E; }
.tiny { font-size: 11px; fill: #59636E; }
.value { font-size: 13px; font-weight: 700; }
</style>
<rect width="1600" height="926" fill="#FFFFFF"/>
<text x="70.0" y="56.0" class="title">Dense ANSI CPU: overlapping stack-family share</text>
<text x="70.0" y="84.0" class="subtitle">FAMILIES OVERLAP AND MUST NOT BE ADDED. Each value is the share of all samples whose native stack contains the family.</text>
<text x="70.0" y="111.0" class="small mono">master: 7,894 samples / 7.896s / trace 078ec1c77aec...</text>
<text x="805.0" y="111.0" class="small mono">candidate: 7,707 samples / 8.091s / trace 39517d50ff32...</text>
<text x="70.0" y="143.0" class="small">Absent = function is not in that revision. 0.0% = present family with zero observed samples. Independent per-trace normalization.</text>
<line x1="560.0" y1="177.0" x2="560.0" y2="834.0" stroke="#D8DDE2" stroke-width="1"/>
<text x="560.0" y="169.0" class="tiny" text-anchor="middle">0%</text>
<line x1="738.0" y1="177.0" x2="738.0" y2="834.0" stroke="#D8DDE2" stroke-width="1"/>
<text x="738.0" y="169.0" class="tiny" text-anchor="middle">20%</text>
<line x1="916.0" y1="177.0" x2="916.0" y2="834.0" stroke="#D8DDE2" stroke-width="1"/>
<text x="916.0" y="169.0" class="tiny" text-anchor="middle">40%</text>
<line x1="1094.0" y1="177.0" x2="1094.0" y2="834.0" stroke="#D8DDE2" stroke-width="1"/>
<text x="1094.0" y="169.0" class="tiny" text-anchor="middle">60%</text>
<line x1="1272.0" y1="177.0" x2="1272.0" y2="834.0" stroke="#D8DDE2" stroke-width="1"/>
<text x="1272.0" y="169.0" class="tiny" text-anchor="middle">80%</text>
<line x1="1450.0" y1="177.0" x2="1450.0" y2="834.0" stroke="#D8DDE2" stroke-width="1"/>
<text x="1450.0" y="169.0" class="tiny" text-anchor="middle">100%</text>
<rect x="70" y="182" width="1460" height="49" fill="#F7F8FA"/>
<text x="92.0" y="210.0" class="label mono">BlitEncoder::encode_inner</text>
<line x1="560.0" y1="197.0" x2="1449.8" y2="197.0" stroke="#343A40" stroke-width="3" stroke-dasharray="6 5"/>
<rect x="1444.8" y="192.0" width="10" height="10" fill="#FFFFFF" stroke="#343A40" stroke-width="2"/>
<text x="535.0" y="201.0" class="tiny mono" text-anchor="end">M 100.0% (7,892)</text>
<line x1="560.0" y1="215.0" x2="1447.1" y2="215.0" stroke="#1769AA" stroke-width="3" stroke-dasharray="none"/>
<circle cx="1447.1" cy="215.0" r="5" fill="#1769AA" stroke="#1769AA"/>
<text x="535.0" y="219.0" class="tiny mono" text-anchor="end">C 99.7% (7,682)</text>
<text x="92.0" y="266.0" class="label mono">write_cell</text>
<line x1="560.0" y1="253.0" x2="1379.6" y2="253.0" stroke="#343A40" stroke-width="3" stroke-dasharray="6 5"/>
<rect x="1374.6" y="248.0" width="10" height="10" fill="#FFFFFF" stroke="#343A40" stroke-width="2"/>
<text x="535.0" y="257.0" class="tiny mono" text-anchor="end">M 92.1% (7,270)</text>
<line x1="560.0" y1="271.0" x2="1110.8" y2="271.0" stroke="#1769AA" stroke-width="3" stroke-dasharray="none"/>
<circle cx="1110.8" cy="271.0" r="5" fill="#1769AA" stroke="#1769AA"/>
<text x="535.0" y="275.0" class="tiny mono" text-anchor="end">C 61.9% (4,770)</text>
<rect x="70" y="294" width="1460" height="49" fill="#F7F8FA"/>
<text x="92.0" y="322.0" class="label mono">direct write_sgr family</text>
<text x="535.0" y="313.0" class="tiny mono" text-anchor="end">M absent</text>
<line x1="560.0" y1="327.0" x2="945.5" y2="327.0" stroke="#1769AA" stroke-width="3" stroke-dasharray="none"/>
<circle cx="945.5" cy="327.0" r="5" fill="#1769AA" stroke="#1769AA"/>
<text x="535.0" y="331.0" class="tiny mono" text-anchor="end">C 43.3% (3,338)</text>
<text x="92.0" y="378.0" class="label mono">alloc::fmt::format</text>
<line x1="560.0" y1="365.0" x2="905.7" y2="365.0" stroke="#343A40" stroke-width="3" stroke-dasharray="6 5"/>
<rect x="900.7" y="360.0" width="10" height="10" fill="#FFFFFF" stroke="#343A40" stroke-width="2"/>
<text x="535.0" y="369.0" class="tiny mono" text-anchor="end">M 38.8% (3,066)</text>
<line x1="560.0" y1="383.0" x2="560.0" y2="383.0" stroke="#1769AA" stroke-width="3" stroke-dasharray="none"/>
<circle cx="560.0" cy="383.0" r="5" fill="#1769AA" stroke="#1769AA"/>
<text x="535.0" y="387.0" class="tiny mono" text-anchor="end">C 0.0% (0)</text>
<rect x="70" y="406" width="1460" height="49" fill="#F7F8FA"/>
<text x="92.0" y="434.0" class="label mono">malloc-containing stack</text>
<line x1="560.0" y1="421.0" x2="876.6" y2="421.0" stroke="#343A40" stroke-width="3" stroke-dasharray="6 5"/>
<rect x="871.6" y="416.0" width="10" height="10" fill="#FFFFFF" stroke="#343A40" stroke-width="2"/>
<text x="535.0" y="425.0" class="tiny mono" text-anchor="end">M 35.6% (2,808)</text>
<line x1="560.0" y1="439.0" x2="571.5" y2="439.0" stroke="#1769AA" stroke-width="3" stroke-dasharray="none"/>
<circle cx="571.5" cy="439.0" r="5" fill="#1769AA" stroke="#1769AA"/>
<text x="535.0" y="443.0" class="tiny mono" text-anchor="end">C 1.3% (100)</text>
<text x="92.0" y="490.0" class="label mono">realloc-containing stack</text>
<line x1="560.0" y1="477.0" x2="839.2" y2="477.0" stroke="#343A40" stroke-width="3" stroke-dasharray="6 5"/>
<rect x="834.2" y="472.0" width="10" height="10" fill="#FFFFFF" stroke="#343A40" stroke-width="2"/>
<text x="535.0" y="481.0" class="tiny mono" text-anchor="end">M 31.4% (2,476)</text>
<line x1="560.0" y1="495.0" x2="571.8" y2="495.0" stroke="#1769AA" stroke-width="3" stroke-dasharray="none"/>
<circle cx="571.8" cy="495.0" r="5" fill="#1769AA" stroke="#1769AA"/>
<text x="535.0" y="499.0" class="tiny mono" text-anchor="end">C 1.3% (102)</text>
<rect x="70" y="518" width="1460" height="49" fill="#F7F8FA"/>
<text x="92.0" y="546.0" class="label mono">legacy build_sgr</text>
<line x1="560.0" y1="533.0" x2="775.0" y2="533.0" stroke="#343A40" stroke-width="3" stroke-dasharray="6 5"/>
<rect x="770.0" y="528.0" width="10" height="10" fill="#FFFFFF" stroke="#343A40" stroke-width="2"/>
<text x="535.0" y="537.0" class="tiny mono" text-anchor="end">M 24.2% (1,907)</text>
<text x="535.0" y="555.0" class="tiny mono" text-anchor="end">C absent</text>
<text x="92.0" y="602.0" class="label mono">write_sgr_colour</text>
<text x="535.0" y="593.0" class="tiny mono" text-anchor="end">M absent</text>
<line x1="560.0" y1="607.0" x2="649.2" y2="607.0" stroke="#1769AA" stroke-width="3" stroke-dasharray="none"/>
<circle cx="649.2" cy="607.0" r="5" fill="#1769AA" stroke="#1769AA"/>
<text x="535.0" y="611.0" class="tiny mono" text-anchor="end">C 10.0% (772)</text>
<rect x="70" y="630" width="1460" height="49" fill="#F7F8FA"/>
<text x="92.0" y="658.0" class="label mono">write_u8_decimal</text>
<text x="535.0" y="649.0" class="tiny mono" text-anchor="end">M absent</text>
<line x1="560.0" y1="663.0" x2="621.7" y2="663.0" stroke="#1769AA" stroke-width="3" stroke-dasharray="none"/>
<circle cx="621.7" cy="663.0" r="5" fill="#1769AA" stroke="#1769AA"/>
<text x="535.0" y="667.0" class="tiny mono" text-anchor="end">C 6.9% (534)</text>
<text x="92.0" y="714.0" class="label mono">write_changed_cells</text>
<line x1="560.0" y1="701.0" x2="564.1" y2="701.0" stroke="#343A40" stroke-width="3" stroke-dasharray="6 5"/>
<rect x="559.1" y="696.0" width="10" height="10" fill="#FFFFFF" stroke="#343A40" stroke-width="2"/>
<text x="535.0" y="705.0" class="tiny mono" text-anchor="end">M 0.5% (36)</text>
<line x1="560.0" y1="719.0" x2="616.7" y2="719.0" stroke="#1769AA" stroke-width="3" stroke-dasharray="none"/>
<circle cx="616.7" cy="719.0" r="5" fill="#1769AA" stroke="#1769AA"/>
<text x="535.0" y="723.0" class="tiny mono" text-anchor="end">C 6.4% (491)</text>
<rect x="70" y="742" width="1460" height="49" fill="#F7F8FA"/>
<text x="92.0" y="770.0" class="label mono">SgrStyleKey::from_cell</text>
<text x="535.0" y="761.0" class="tiny mono" text-anchor="end">M absent</text>
<line x1="560.0" y1="775.0" x2="616.2" y2="775.0" stroke="#1769AA" stroke-width="3" stroke-dasharray="none"/>
<circle cx="616.2" cy="775.0" r="5" fill="#1769AA" stroke="#1769AA"/>
<text x="535.0" y="779.0" class="tiny mono" text-anchor="end">C 6.3% (487)</text>
<text x="70.0" y="868.0" class="small">Containment is evaluated against complete sanitized native stacks; malloc/realloc and caller families intentionally overlap.</text>
<line x1="70.0" y1="881.0" x2="1530.0" y2="881.0" stroke="#D8DDE2" stroke-width="1"/>
<text x="70.0" y="904.0" class="tiny mono">master 06ca0baa12f4203c5bbad9ecadf53f9a475a52b2  |  candidate d00dc4813d6803ce4efa3e9ad7b1c3533512aaff</text>
<text x="1530.0" y="904.0" class="tiny" text-anchor="end">Xcode 26.6 Time Profiler | 8s each | 200×50 dense fixture | oracle 276444 B / edfa0379543ed13d</text>
</svg>
